999
FreeCAD v0.19 22474 (Git)
  0
SECTION
  2
HEADER
  9
$ACADVER
  1
AC1014
  9
$ACADMAINTVER
 70
     9
  9
$DWGCODEPAGE
  3
ANSI_1252
  9
$TEXTSTYLE
  7
STANDARD
  9
$DIMSTYLE
  2
STANDARD
  9
$DIMTXSTY
  7
STANDARD
  9
$CMLSTYLE
  2
STANDARD
  9
$PEXTMAX
 10
50
 20
50
 30
50
  9
$PEXTMIN
 10
0
 20
0
 30
0
  9
$HANDSEED
  5
FFFF
  0
ENDSEC
  0
SECTION
  2
CLASSES
  0
CLASS
  1
ACDBDICTIONARYWDFLT
  2
AcDbDictionaryWithDefault
  3
ObjectDBX Classes
 90
        0
280
     0
281
     0
  0
CLASS
  1
XRECORD
  2
AcDbXrecord
  3
ObjectDBX Classes
 90
        0
280
     0
281
     0
  0
CLASS
  1
LWPOLYLINE
  2
AcDbPolyline
  3
ObjectDBX Classes
 90
        0
280
     0
281
     1
  0
ENDSEC
  0
SECTION
  2
TABLES
  0
TABLE
  2
VPORT
  5
20
330
0
100
AcDbSymbolTable
 70
     1
  0
VPORT
  5
21
330
20
100
AcDbSymbolTableRecord
100
AcDbViewportTableRecord
  2
*ACTIVE
 70
     0
  0
ENDTAB
  0
TABLE
  2
LTYPE
  5
22
330
0
100
AcDbSymbolTable
 70
     1
  0
LTYPE
  5
23
330
21
100
AcDbSymbolTableRecord
100
AcDbLinetypeTableRecord
  2
BYBLOCK
 70
     0
  3

 72
    65
 73
     0
 40
0.0
  0
LTYPE
  5
24
330
21
100
AcDbSymbolTableRecord
100
AcDbLinetypeTableRecord
  2
BYLAYER
 70
     0
  3

 72
    65
 73
     0
 40
0.0
  0
LTYPE
  5
25
330
21
100
AcDbSymbolTableRecord
100
AcDbLinetypeTableRecord
  2
CONTINUOUS
 70
     0
  3
Solid line
 72
    65
 73
     0
 40
0.0
  0
ENDTAB
  0
TABLE
  2
LAYER
  5
A24
330
0
100
AcDbSymbolTable
 70
3
  0
LAYER
  5
A25
330
A24
100
AcDbSymbolTableRecord
100
AcDbLayerTableRecord
  2
0
 70
   0
 62
   7
  6
CONTINUOUS
  0
LAYER
  5
A26
330
A24
100
AcDbSymbolTableRecord
100
AcDbLayerTableRecord
  2
none
 70
    0
 62
    7
  6
CONTINUOUS
  0
LAYER
  5
A27
330
A24
100
AcDbSymbolTableRecord
100
AcDbLayerTableRecord
  2
Shape2DView
 70
    0
 62
    7
  6
CONTINUOUS
  0
ENDTAB
  0
TABLE
  2
STYLE
  5
70
330
0
100
AcDbSymbolTable
 70
     2
  0
STYLE
  5
71
330
70
100
AcDbSymbolTableRecord
100
AcDbTextStyleTableRecord
  2
STANDARD
 70
     0
 40
0.0
 41
1.0
 50
0.0
 71
     0
 42
2.5
  3
arial.ttf
  4

  0
STYLE
  5
72
330
70
100
AcDbSymbolTableRecord
100
AcDbTextStyleTableRecord
  2
ANNOTATIVE
 70
     0
 40
0.0
 41
1.0
 50
0.0
 71
     0
 42
2.5
  3
arial.ttf
  4

  0
ENDTAB
  0
TABLE
  2
VIEW
  5
73
330
0
100
AcDbSymbolTable
 70
     0
  0
ENDTAB
  0
TABLE
  2
UCS
  5
74
330
0
100
AcDbSymbolTable
 70
     0
  0
ENDTAB
  0
TABLE
  2
APPID
  5
75
330
0
100
AcDbSymbolTable
 70
     2
  0
APPID
  5
76
330
75
100
AcDbSymbolTableRecord
100
AcDbRegAppTableRecord
  2
ACAD
 70
     0
  0
APPID
  5
77
330
75
100
AcDbSymbolTableRecord
100
AcDbRegAppTableRecord
  2
ACADANNOTATIVE
 70
     0
  0
ENDTAB
  0
TABLE
  2
DIMSTYLE
  5
78
330
0
100
AcDbSymbolTable
 70
     2
  0
DIMSTYLE
105
79
330
78
100
AcDbSymbolTableRecord
100
AcDbDimStyleTableRecord
  2
STANDARD
 70
     0
  3

  4

  5

  6

  7

 40
0.0
 41
2.5
 42
0.625
 43
3.75
 44
1.25
 45
0.0
 46
0.0
 47
0.0
 48
0.0
140
2.5
141
2.5
142
0.0
143
0.03937007874016
144
1.0
145
0.0
146
1.0
147
0.625
 71
     0
 72
     0
 73
     0
 74
     0
 75
     0
 76
     0
 77
     1
 78
     8
170
     0
171
     3
172
     1
173
     0
174
     0
175
     0
176
     0
177
     0
178
     0
270
     2
271
     2
272
     2
273
     2
274
     3
340
71
275
     0
280
     0
281
     0
282
     0
283
     0
284
     8
285
     0
286
     0
287
     3
288
     0
  0
ENDTAB
  0
TABLE
  2
BLOCK_RECORD
  5
A01
330
0
100
AcDbSymbolTable
  70
5
  0
BLOCK_RECORD
  5
A02
330
A01
100
AcDbSymbolTableRecord
100
AcDbBlockTableRecord
  2
*MODEL_SPACE
  0
BLOCK_RECORD
  5
A03
330
A01
100
AcDbSymbolTableRecord
100
AcDbBlockTableRecord
  2
*PAPER_SPACE
  0
ENDTAB
  0
ENDSEC
  0
SECTION
  2
BLOCKS
  0
BLOCK
  5
A04
330
A02
100
AcDbEntity
  8
0
100
AcDbBlockBegin
  2
*MODEL_SPACE
 70
   0
 10
0
 20
0
 30
0
  3
*MODEL_SPACE
  1
 
  0
ENDBLK
  5
A05
330
A02
100
AcDbEntity
  8
0
100
AcDbBlockEnd
  0
BLOCK
  5
A06
330
A03
100
AcDbEntity
 67
1
  8
0
100
AcDbBlockBegin
  2
*PAPER_SPACE
 70
   0
 10
0
 20
0
 30
0
  3
*PAPER_SPACE
  1
 
  0
ENDBLK
  5
A07
330
A03
100
AcDbEntity
 67
    1
  8
0
100
AcDbBlockEnd
  0
ENDSEC
  0
SECTION
  2
ENTITIES
  0
ELLIPSE
  5
A08
330
A02
100
AcDbEntity
  8
Shape2DView
100
AcDbEllipse
 10
-213.739
 20
-318.881
 30
0
 11
-5.28298e-07
 21
2
 31
0
 40
1
 41
-1.5708
 42
-2.64149e-07
  0
LINE
  5
A09
330
A02
100
AcDbEntity
  8
Shape2DView
100
AcDbLine
 10
-213.739
 20
-316.881
 30
0
 11
-308.739
 21
-316.881
 31
0
  0
ELLIPSE
  5
A0A
330
A02
100
AcDbEntity
  8
Shape2DView
100
AcDbEllipse
 10
-294.639
 20
-481.881
 30
0
 11
-7.13202e-07
 21
2.7
 31
0
 40
1
 41
0
 42
6.28318
  0
ELLIPSE
  5
A0B
330
A02
100
AcDbEntity
  8
Shape2DView
100
AcDbEllipse
 10
-264.639
 20
-481.881
 30
0
 11
-7.13202e-07
 21
2.7
 31
0
 40
1
 41
0
 42
6.28318
  0
ELLIPSE
  5
A0C
330
A02
100
AcDbEntity
  8
Shape2DView
100
AcDbEllipse
 10
-494.839
 20
-481.881
 30
0
 11
-7.13202e-07
 21
2.7
 31
0
 40
1
 41
0
 42
6.28318
  0
ELLIPSE
  5
A0D
330
A02
100
AcDbEntity
  8
Shape2DView
100
AcDbEllipse
 10
-464.839
 20
-481.881
 30
0
 11
-7.13202e-07
 21
2.7
 31
0
 40
1
 41
0
 42
6.28318
  0
ELLIPSE
  5
A0E
330
A02
100
AcDbEntity
  8
Shape2DView
100
AcDbEllipse
 10
-213.739
 20
-567.881
 30
0
 11
-5.28298e-07
 21
2
 31
0
 40
1
 41
-3.14159
 42
-1.5708
  0
LINE
  5
A0F
330
A02
100
AcDbEntity
  8
Shape2DView
100
AcDbLine
 10
-213.739
 20
-569.881
 30
0
 11
-247.639
 21
-569.881
 31
0
  0
ELLIPSE
  5
A10
330
A02
100
AcDbEntity
  8
Shape2DView
100
AcDbEllipse
 10
-247.639
 20
-567.881
 30
0
 11
-5.28298e-07
 21
2
 31
0
 40
1
 41
-4.71239
 42
-3.14159
  0
ELLIPSE
  5
A11
330
A02
100
AcDbEntity
  8
Shape2DView
100
AcDbEllipse
 10
-251.639
 20
-563.681
 30
0
 11
5.28298e-07
 21
-2
 31
0
 40
1
 41
1.5708
 42
3.14159
  0
LINE
  5
A12
330
A02
100
AcDbEntity
  8
Shape2DView
100
AcDbLine
 10
-251.639
 20
-561.681
 30
0
 11
-507.839
 21
-561.681
 31
0
  0
ELLIPSE
  5
A13
330
A02
100
AcDbEntity
  8
Shape2DView
100
AcDbEllipse
 10
-507.839
 20
-563.681
 30
0
 11
5.28298e-07
 21
-2
 31
0
 40
1
 41
3.14159
 42
4.71239
  0
ELLIPSE
  5
A14
330
A02
100
AcDbEntity
  8
Shape2DView
100
AcDbEllipse
 10
-511.839
 20
-567.881
 30
0
 11
-5.28298e-07
 21
2
 31
0
 40
1
 41
-3.14159
 42
-1.5708
  0
LINE
  5
A15
330
A02
100
AcDbEntity
  8
Shape2DView
100
AcDbLine
 10
-509.839
 20
-563.681
 30
0
 11
-509.839
 21
-567.881
 31
0
  0
ELLIPSE
  5
A16
330
A02
100
AcDbEntity
  8
Shape2DView
100
AcDbEllipse
 10
-545.739
 20
-567.881
 30
0
 11
-5.28298e-07
 21
2
 31
0
 40
1
 41
-4.71239
 42
-3.14159
  0
LINE
  5
A17
330
A02
100
AcDbEntity
  8
Shape2DView
100
AcDbLine
 10
-547.739
 20
-318.881
 30
0
 11
-547.739
 21
-567.881
 31
0
  0
LINE
  5
A18
330
A02
100
AcDbEntity
  8
Shape2DView
100
AcDbLine
 10
-511.839
 20
-569.881
 30
0
 11
-545.739
 21
-569.881
 31
0
  0
LINE
  5
A19
330
A02
100
AcDbEntity
  8
Shape2DView
100
AcDbLine
 10
-249.639
 20
-567.881
 30
0
 11
-249.639
 21
-563.681
 31
0
  0
LINE
  5
A1A
330
A02
100
AcDbEntity
  8
Shape2DView
100
AcDbLine
 10
-211.739
 20
-318.881
 30
0
 11
-211.739
 21
-567.881
 31
0
  0
LINE
  5
A1B
330
A02
100
AcDbEntity
  8
Shape2DView
100
AcDbLine
 10
-308.739
 20
-316.881
 30
0
 11
-308.739
 21
-319.881
 31
0
  0
LINE
  5
A1C
330
A02
100
AcDbEntity
  8
Shape2DView
100
AcDbLine
 10
-308.739
 20
-319.881
 30
0
 11
-328.739
 21
-319.881
 31
0
  0
LINE
  5
A1D
330
A02
100
AcDbEntity
  8
Shape2DView
100
AcDbLine
 10
-328.739
 20
-319.881
 30
0
 11
-328.739
 21
-316.881
 31
0
  0
LINE
  5
A1E
330
A02
100
AcDbEntity
  8
Shape2DView
100
AcDbLine
 10
-328.739
 20
-316.881
 30
0
 11
-430.739
 21
-316.881
 31
0
  0
LINE
  5
A1F
330
A02
100
AcDbEntity
  8
Shape2DView
100
AcDbLine
 10
-430.739
 20
-316.881
 30
0
 11
-430.739
 21
-319.881
 31
0
  0
LINE
  5
A20
330
A02
100
AcDbEntity
  8
Shape2DView
100
AcDbLine
 10
-430.739
 20
-319.881
 30
0
 11
-450.739
 21
-319.881
 31
0
  0
LINE
  5
A21
330
A02
100
AcDbEntity
  8
Shape2DView
100
AcDbLine
 10
-450.739
 20
-319.881
 30
0
 11
-450.739
 21
-316.881
 31
0
  0
LINE
  5
A22
330
A02
100
AcDbEntity
  8
Shape2DView
100
AcDbLine
 10
-450.739
 20
-316.881
 30
0
 11
-545.739
 21
-316.881
 31
0
  0
ELLIPSE
  5
A23
330
A02
100
AcDbEntity
  8
Shape2DView
100
AcDbEllipse
 10
-545.739
 20
-318.881
 30
0
 11
-5.28298e-07
 21
2
 31
0
 40
1
 41
-2.64149e-07
 42
-4.71239
  0
ENDSEC
  0
SECTION
  2
OBJECTS
  0
DICTIONARY
  5
F000
330
0
100
AcDbDictionary
  3
ACAD_GROUP
350
F001
  0
DICTIONARY
  5
F001
330
F000
100
AcDbDictionary
  0
ENDSEC
  0
EOF